<?xml version="1.0" encoding="UTF-8" standalone="no" ?>
<!DOCTYPE svg PUBLIC "-//W3C//DTD SVG 1.1//EN" "http://www.w3.org/Graphics/SVG/1.1/DTD/svg11.dtd">
<svg xmlns="http://www.w3.org/2000/svg" xmlns:xlink="http://www.w3.org/1999/xlink" version="1.1" width="100" height="100" viewBox="0 0 400 400" xml:space="preserve">
<desc>Created with Fabric.js 3.6.2</desc>
<defs>
</defs>
<g transform="matrix(50 0 0 35 200 187)" id="Layer_1"  >
<path style="stroke: none; stroke-width: 1; stroke-dasharray: none; stroke-linecap: butt; stroke-dashoffset: 0; stroke-linejoin: miter; stroke-miterlimit: 4; fill: rgb(255,255,255); fill-rule: nonzero; opacity: 1;"  transform=" translate(-15, -3.5)" d="M 15 1 L 15 1 c -0.552 0 -1 0.448 -1 1 v 4 h 2 V 2 C 16 1.448 15.552 1 15 1 z" stroke-linecap="round" />
</g>
<g transform="matrix(9.3 0 0 9.5 200 200)" id="Layer_1"  >
<path style="stroke: none; stroke-width: 1; stroke-dasharray: none; stroke-linecap: butt; stroke-dashoffset: 0; stroke-linejoin: miter; stroke-miterlimit: 4; fill: rgb(254,203,56); fill-rule: nonzero; opacity: 1;"  transform=" translate(-15, -16.5)" d="M 24 6 h -8 v 12.586 l 2.293 -2.293 c 0.391 -0.391 1.023 -0.391 1.414 0 s 0.391 1.023 0 1.414 l -4 4 C 15.512 21.902 15.256 22 15 22 s -0.512 -0.098 -0.707 -0.293 l -4 -4 c -0.391 -0.391 -0.391 -1.023 0 -1.414 s 1.023 -0.391 1.414 0 L 14 18.586 V 6 H 6 C 4.895 6 4 6.895 4 8 v 17 c 0 1.105 0.895 2 2 2 h 18 c 1.105 0 2 -0.895 2 -2 V 8 C 26 6.895 25.105 6 24 6 z" stroke-linecap="round" />
</g>
</svg>