<svg width="50" height="50" viewBox="0 0 50 50" fill="none" xmlns="http://www.w3.org/2000/svg">
<path d="M32.8125 26.5625H17.1875C16.325 26.5625 15.625 27.2625 15.625 28.125C15.625 28.9875 16.325 29.6875 17.1875 29.6875H32.8125C33.675 29.6875 34.375 28.9875 34.375 28.125C34.375 27.2625 33.675 26.5625 32.8125 26.5625ZM35.9375 17.1875H14.0625C13.2 17.1875 12.5 17.8875 12.5 18.75C12.5 19.6125 13.2 20.3125 14.0625 20.3125H35.9375C36.8 20.3125 37.5 19.6125 37.5 18.75C37.5 17.8875 36.8 17.1875 35.9375 17.1875ZM25 0C11.1938 0 0 9.79371 0 21.875C0 28.7797 3.66405 34.9266 9.375 38.9359V50L20.3266 43.3547C21.8422 43.6047 23.4016 43.75 25 43.75C38.8078 43.75 50 33.9563 50 21.875C50 9.79371 38.8078 0 25 0ZM25 40.625C23.175 40.625 21.4125 40.4125 19.7187 40.0516L12.3624 44.4734L12.4609 37.2266C6.8219 33.8344 3.125 28.2282 3.125 21.875C3.125 11.5203 12.9187 3.125 25 3.125C37.0813 3.125 46.875 11.5203 46.875 21.875C46.875 32.2297 37.0813 40.625 25 40.625Z" fill="#FECB38"/>
</svg>
