<svg width="50" height="50" viewBox="0 0 50 50" fill="none" xmlns="http://www.w3.org/2000/svg">
<path d="M45.1042 39.8685C48.2823 35.5902 50 30.4271 50 25C50 18.3223 47.3996 12.0442 42.6777 7.32227C37.9558 2.60049 31.6777 0 25 0V2.92969C30.8952 2.92969 36.4376 5.22539 40.6061 9.39395C44.7746 13.5625 47.0703 19.1048 47.0703 25C47.0703 29.762 45.5716 34.2933 42.7986 38.0566L42.4628 34.2179L39.5442 34.4731L40.3103 43.2287L49.0659 42.4627L48.8106 39.5441L45.1042 39.8685Z" fill="#FECB38"/>
<path d="M2.92969 25C2.92969 20.2379 4.42842 15.7067 7.20137 11.9433L7.53721 15.7821L10.4558 15.5268L9.68975 6.77124L0.934082 7.53716L1.18936 10.4557L4.8957 10.1315C1.71768 14.4097 0 19.5728 0 25C0 31.6777 2.60039 37.9557 7.32227 42.6777C12.0442 47.3995 18.3223 50 25 50V47.0703C19.1048 47.0703 13.5624 44.7746 9.39395 40.606C5.22539 36.4375 2.92969 30.8952 2.92969 25Z" fill="#FECB38"/>
<path d="M25 19.043C21.7152 19.043 19.043 21.7152 19.043 25C19.043 28.2848 21.7152 30.957 25 30.957C28.2848 30.957 30.957 28.2848 30.957 25C30.957 21.7152 28.2848 19.043 25 19.043ZM25 28.0273C23.3308 28.0273 21.9727 26.6692 21.9727 25C21.9727 23.3308 23.3308 21.9727 25 21.9727C26.6692 21.9727 28.0273 23.3308 28.0273 25C28.0273 26.6692 26.6692 28.0273 25 28.0273Z" fill="#FECB38"/>
<path d="M38.5717 19.0501L35.6973 19.9841C35.0554 18.6207 34.1605 17.3991 33.0733 16.3802L34.8526 13.9312L32.4824 12.2091L30.7053 14.6552C29.4187 13.9428 27.9863 13.4633 26.4648 13.2743V10.2539H23.5352V13.2743C22.0137 13.4633 20.5813 13.9429 19.2947 14.6552L17.5176 12.2091L15.1474 13.9312L16.9267 16.3802C15.8395 17.3991 14.9445 18.6206 14.3027 19.9841L11.4283 19.0501L10.5229 21.8363L13.3956 22.7697C13.257 23.4923 13.1836 24.2377 13.1836 25C13.1836 25.7623 13.257 26.5077 13.3956 27.2303L10.5229 28.1637L11.4283 30.9499L14.3027 30.0159C14.9446 31.3793 15.8395 32.6009 16.9267 33.6198L15.1474 36.0688L17.5176 37.7909L19.2947 35.3448C20.5813 36.0572 22.0137 36.5367 23.5352 36.7257V39.7461H26.4648V36.7257C27.9863 36.5367 29.4187 36.0571 30.7053 35.3448L32.4824 37.7909L34.8526 36.0688L33.0733 33.6198C34.1605 32.6009 35.0555 31.3794 35.6973 30.0159L38.5717 30.9499L39.4771 28.1637L36.6044 27.2303C36.743 26.5077 36.8164 25.7623 36.8164 25C36.8164 24.2377 36.743 23.4923 36.6044 22.7697L39.4771 21.8363L38.5717 19.0501ZM25 33.8867C20.0998 33.8867 16.1133 29.9002 16.1133 25C16.1133 20.0998 20.0998 16.1133 25 16.1133C29.9002 16.1133 33.8867 20.0998 33.8867 25C33.8867 29.9002 29.9002 33.8867 25 33.8867Z" fill="#FECB38"/>
</svg>
