<svg width="50" height="50" viewBox="0 0 50 50" fill="none" xmlns="http://www.w3.org/2000/svg">
<path d="M25 50C11.2144 50 0 38.7856 0 25C0 11.2144 11.2144 0 25 0C38.7856 0 50 11.2144 50 25C50 38.7856 38.7856 50 25 50ZM25 3.125C12.9375 3.125 3.125 12.9375 3.125 25C3.125 37.0625 12.9375 46.875 25 46.875C37.0625 46.875 46.875 37.0625 46.875 25C46.875 12.9375 37.0625 3.125 25 3.125Z" fill="#FECB38"/>
<path d="M35.9375 38.5418C35.5373 38.5418 35.1376 38.3896 34.8331 38.0833L23.8956 27.1458C23.6019 26.8521 23.4375 26.4542 23.4375 26.0418V11.4583C23.4375 10.5957 24.1375 9.89575 25 9.89575C25.8625 9.89575 26.5625 10.5957 26.5625 11.4583V25.3937L37.0419 35.8731C37.6522 36.4834 37.6522 37.473 37.0419 38.0833C36.7374 38.3896 36.3377 38.5418 35.9375 38.5418Z" fill="#FECB38"/>
</svg>
